<svg t="1661106269391" class="icon" viewBox="0 0 1024 1024" version="1.1" xmlns="http://www.w3.org/2000/svg" p-id="3801" width="200" height="200"><path d="M893.62 678.73L554.05 90.54a53.2 53.2 0 0 0-46.07-26.6 53.188 53.188 0 0 0-46.07 26.6L122.32 678.73c-9.51 16.46-9.51 36.74 0 53.2s27.07 26.6 46.07 26.6h679.17c19.01 0 36.56-10.14 46.07-26.6s9.5-36.74-0.01-53.2zM514.85 254.86c24.17-0.2 48.13 21.26 48.13 41.16l-11.94 205.81c0 19.9-16.28 36.19-36.18 36.19s-36.18-16.28-36.18-36.19l-11.94-205.81c-0.02-19.9 18.97-40.4 48.11-41.16z m0 432.77c-27.46 0-49.72-22.26-49.72-49.72 0-27.46 22.26-49.72 49.72-49.72 27.46 0 49.72 22.26 49.72 49.72 0 27.46-22.26 49.72-49.72 49.72z" p-id="3802"></path></svg>